<svg width="82" height="25" viewBox="0 0 82 25" fill="none" xmlns="http://www.w3.org/2000/svg">
<path d="M43.2147 6.37001C43.2147 7.28367 42.4716 8.01937 41.5493 8.01937C40.6271 8.01937 39.8845 7.28367 39.8845 6.37001C39.8845 5.45635 40.6017 4.72066 41.5493 4.72066C42.4977 4.74601 43.2147 5.48196 43.2147 6.37001ZM36.3495 9.69458V10.1007C36.3495 10.1007 35.5557 9.08513 33.865 9.08513C31.0731 9.08513 28.8954 11.1915 28.8954 14.1097C28.8954 17.0028 31.0475 19.1343 33.865 19.1343C35.5813 19.1343 36.3495 18.0939 36.3495 18.0939V18.5252C36.3495 18.7282 36.5035 18.8801 36.7082 18.8801H38.7828V9.33814H36.7082C36.5035 9.33891 36.3495 9.51687 36.3495 9.69458ZM36.3495 15.81C35.9656 16.3685 35.1969 16.8507 34.2749 16.8507C32.6356 16.8507 31.3802 15.8356 31.3802 14.1097C31.3802 12.3841 32.6356 11.369 34.2749 11.369C35.1716 11.369 35.9912 11.8765 36.3495 12.4094V15.81ZM40.32 9.3389H42.7789V18.8808H40.32V9.3389ZM77.053 9.08489C75.3622 9.08489 74.5679 10.1004 74.5679 10.1004V4.74601H72.109V18.8808H74.1841C74.3891 18.8808 74.5423 18.7031 74.5423 18.5254V18.0942C74.5423 18.0942 75.3367 19.1346 77.0269 19.1346C79.8192 19.1346 81.9964 17.0036 81.9964 14.1105C81.9964 11.2174 79.8192 9.08489 77.053 9.08489ZM76.643 16.8251C75.6949 16.8251 74.9523 16.3434 74.5679 15.7847V12.3841C74.9523 11.8765 75.7719 11.3436 76.643 11.3436C78.2823 11.3436 79.5375 12.3587 79.5375 14.0844C79.5375 15.81 78.2826 16.8251 76.643 16.8251ZM70.8285 13.2219V18.9062H68.369V13.5008C68.369 11.9277 67.8567 11.2929 66.4744 11.2929C65.7318 11.2929 64.963 11.6737 64.4755 12.2322V18.8811H62.0171V9.33916H63.9632C64.1682 9.33916 64.322 9.51687 64.322 9.69458V10.1007C65.0393 9.36451 65.9869 9.08513 66.9345 9.08513C68.0105 9.08513 68.9072 9.39011 69.6245 9.99905C70.4951 10.7096 70.8285 11.623 70.8285 13.2219ZM56.0478 9.08489C54.3576 9.08489 53.5633 10.1004 53.5633 10.1004V4.74601H51.1043V18.8808H53.1789C53.3839 18.8808 53.5377 18.7031 53.5377 18.5254V18.0942C53.5377 18.0942 54.332 19.1346 56.0222 19.1346C58.8146 19.1346 60.9918 17.0036 60.9918 14.1105C61.0173 11.2171 58.8402 9.08489 56.0478 9.08489ZM55.6378 16.8251C54.6902 16.8251 53.9476 16.3434 53.5633 15.7847V12.3841C53.9476 11.8765 54.7673 11.3436 55.6378 11.3436C57.2776 11.3436 58.5326 12.3587 58.5326 14.0844C58.5326 15.81 57.2776 16.8251 55.6378 16.8251ZM48.9781 9.08489C49.7207 9.08489 50.105 9.21215 50.105 9.21215V11.4704C50.105 11.4704 48.0558 10.7851 46.7753 12.2319V18.9059H44.3159V9.3389H46.3909C46.5959 9.3389 46.7492 9.51662 46.7492 9.69433V10.1004C47.2108 9.56732 48.2099 9.08489 48.9781 9.08489ZM23.4396 18.0179C23.3117 17.7134 23.1835 17.3836 23.0555 17.1042C22.8503 16.6476 22.6453 16.2159 22.4665 15.81L22.4409 15.7847C20.6731 11.9779 18.7779 8.12103 16.7796 4.31479L16.7029 4.16217C16.4927 3.76731 16.2879 3.36969 16.0884 2.96939C15.832 2.51231 15.5761 2.03063 15.1662 1.57355C14.3465 0.558489 13.1681 0 11.9132 0C10.6322 0 9.4796 0.558492 8.63462 1.5226C8.25026 1.97917 7.96826 2.46136 7.71236 2.91844C7.51245 3.31849 7.30763 3.7161 7.09795 4.11122L7.02093 4.26383C5.04846 8.07007 3.12743 11.9272 1.35994 15.7337L1.33409 15.7842C1.15496 16.1908 0.949733 16.622 0.744758 17.0784C0.616809 17.3577 0.488859 17.6622 0.36091 17.992C0.0277302 18.9308 -0.07489 19.8191 0.0535711 20.733C0.335315 22.6364 1.61583 24.2345 3.38358 24.9456C4.04968 25.225 4.74138 25.3517 5.45841 25.3517C5.66338 25.3517 5.91929 25.3264 6.12452 25.3008C6.97001 25.1994 7.84083 24.9205 8.68632 24.4383C9.73652 23.8545 10.7355 23.0174 11.8625 21.7993C12.9895 23.0174 14.0141 23.8545 15.0387 24.4383C15.8845 24.9205 16.7551 25.1994 17.6003 25.3008C17.8053 25.3266 18.0617 25.3517 18.2666 25.3517C18.9839 25.3517 19.701 25.225 20.3412 24.9456C22.1346 24.2345 23.3895 22.611 23.6715 20.733C23.8749 19.8449 23.7726 18.9571 23.4396 18.0179ZM11.8874 19.3374C10.504 17.6117 9.60729 15.9877 9.30021 14.6178C9.17226 14.0339 9.14642 13.5264 9.22345 13.0696C9.27437 12.6634 9.42842 12.308 9.63339 12.0035C10.1201 11.3188 10.9398 10.8871 11.8876 10.8871C12.8357 10.8871 13.6809 11.2932 14.1421 12.0035C14.3471 12.308 14.5006 12.6637 14.5523 13.0696C14.6288 13.5266 14.6032 14.0593 14.4753 14.6178C14.1669 15.9624 13.2702 17.5866 11.8874 19.3374ZM22.1074 20.5302C21.9283 21.8497 21.0316 22.992 19.7767 23.4996C19.162 23.7531 18.4957 23.8294 17.8301 23.7531C17.1898 23.6768 16.5491 23.4737 15.8835 23.0934C14.9612 22.5854 14.0392 21.7993 12.9632 20.6316C14.6536 18.5764 15.6782 16.6981 16.0626 15.0236C16.242 14.2367 16.2678 13.5264 16.1905 12.8662C16.0884 12.232 15.8576 11.6481 15.4991 11.1406C14.7045 9.99829 13.3723 9.3389 11.8871 9.3389C10.4019 9.3389 9.06965 10.0241 8.2756 11.1406C7.91708 11.6481 7.68626 12.232 7.5839 12.8662C7.48154 13.5264 7.50687 14.2621 7.71185 15.0236C8.09595 16.6981 9.14617 18.6015 10.811 20.6569C9.76084 21.8244 8.81298 22.6113 7.89072 23.1188C7.22462 23.4996 6.58462 23.7026 5.94436 23.7784C5.25292 23.8548 4.58656 23.7531 3.99748 23.5249C2.74256 23.0174 1.84589 21.8751 1.66676 20.5555C1.58999 19.9212 1.64091 19.287 1.89732 18.5764C1.97384 18.3223 2.1023 18.0688 2.23025 17.7644C2.40963 17.3582 2.6141 16.9265 2.81933 16.4953L2.84518 16.4448C4.61241 12.6634 6.50785 8.80627 8.48032 5.05073L8.55709 4.89812C8.76232 4.51785 8.96729 4.11172 9.17201 3.73095C9.37699 3.32482 9.60729 2.94404 9.88929 2.61397C10.4272 2.00554 11.1442 1.67521 11.9385 1.67521C12.7328 1.67521 13.4499 2.00554 13.9878 2.61397C14.2698 2.9448 14.5001 3.32558 14.705 3.73095C14.9103 4.11172 15.1153 4.51785 15.3197 4.89812L15.3967 5.05073C17.3391 8.82187 19.2094 12.629 21.0066 16.4702V16.4955C21.2118 16.9022 21.3909 17.3585 21.5959 17.7651C21.7238 18.0691 21.852 18.3226 21.9288 18.5766C22.1333 19.2358 22.21 19.8705 22.1074 20.5302Z" fill="#FF5A5F"/>
</svg>
